<?xml version="1.0" encoding="utf-8"?>
<!-- Generator: Adobe Illustrator 21.0.2, SVG Export Plug-In . SVG Version: 6.00 Build 0)  -->
<svg version="1.1" id="Ebene_1" xmlns="http://www.w3.org/2000/svg" xmlns:xlink="http://www.w3.org/1999/xlink" x="0px" y="0px"
	 viewBox="0 0 69.4 69.4" style="enable-background:new 0 0 69.4 69.4;" xml:space="preserve">
<style type="text/css">
	.st0{fill:#006EB9;}
	.st1{fill:#FFFFFF;}
</style>
<circle class="st0" cx="34.7" cy="34.7" r="34.7"/>
<g>
	<path class="st1" d="M37.2,31.6H48c2.3,2.9,3.5,5.9,3.5,9.1c0,3.7-1.4,6.8-4.1,9.4s-6.1,3.8-10,3.8c-5.2,0-9.5-2-13.1-5.9
		s-5.4-8.7-5.4-14.3s1.8-10.3,5.5-14.1c3.7-3.7,8.2-5.6,13.7-5.6c1.9,0,4,0.4,6.2,1.1v11.3c-1.8-0.8-3.4-1.3-4.9-1.3
		c-2.7,0-4.8,0.8-6.5,2.5s-2.5,3.8-2.5,6.4c0,2.7,0.8,4.8,2.3,6.4c1.6,1.6,3.7,2.4,6.3,2.4c1.7,0,2.5-0.5,2.5-1.5
		c0-0.7-0.6-1.1-1.7-1.1h-2.6V31.6z"/>
</g>
</svg>
