<?xml version="1.0" encoding="utf-8"?>
<!-- Generator: Adobe Illustrator 21.0.2, SVG Export Plug-In . SVG Version: 6.00 Build 0)  -->
<svg version="1.1" id="Ebene_1" xmlns="http://www.w3.org/2000/svg" xmlns:xlink="http://www.w3.org/1999/xlink" x="0px" y="0px"
	 viewBox="0 0 225.2 69.4" style="enable-background:new 0 0 225.2 69.4;" xml:space="preserve">
<style type="text/css">
	.st0{fill:#006EB9;}
	.st1{fill:#FFFFFF;}
</style>
<circle class="st0" cx="34.7" cy="34.7" r="34.7"/>
<g>
	<path class="st1" d="M37,32h12.6c2.7,3.4,4.1,6.9,4.1,10.6c0,4.3-1.6,7.9-4.8,11c-3.1,3-7.1,4.4-11.7,4.4c-6.1,0-11.1-2.3-15.3-6.9
		s-6.3-10.1-6.3-16.7s2.1-12,6.4-16.4c4.3-4.3,9.6-6.5,16-6.5c2.2,0,4.7,0.5,7.2,1.3v13.2c-2.1-0.9-4-1.5-5.7-1.5
		c-3.1,0-5.6,0.9-7.6,2.9s-2.9,4.4-2.9,7.5c0,3.1,0.9,5.6,2.7,7.5c1.9,1.9,4.3,2.8,7.3,2.8c2,0,2.9-0.6,2.9-1.7c0-0.8-0.7-1.3-2-1.3
		h-3V32z"/>
</g>
<g>
	<path class="st0" d="M73.1,34.8c0-6.9,5.5-11.9,13-11.9c7.6,0,13,4.9,13,11.9c0,7-5.4,12-13,12C78.5,46.8,73.1,41.8,73.1,34.8z
		 M90.9,34.8c0-3.5-2.1-5.5-4.8-5.5c-2.7,0-4.8,2-4.8,5.5c0,3.5,2.1,5.5,4.8,5.5C88.8,40.4,90.9,38.4,90.9,34.8z"/>
	<path class="st0" d="M141.1,33.2v13.2H133V34.5c0-3.3-1.4-4.7-3.5-4.7c-2.3,0-4,1.6-4,5.2v11.5h-8.1V34.5c0-3.3-1.3-4.7-3.5-4.7
		c-2.4,0-4.1,1.6-4.1,5.2v11.5h-8.1V23.3h7.7v2.4c1.7-1.9,4.2-2.8,6.9-2.8c3.1,0,5.8,1.2,7.4,3.6c1.8-2.3,4.7-3.6,8-3.6
		C137.1,22.9,141.1,26.1,141.1,33.2z"/>
	<path class="st0" d="M169,36.9h-16.7c0.7,2.3,2.7,3.7,5.6,3.7c2.2,0,3.7-0.6,5.3-2l4.2,4.4c-2.2,2.5-5.4,3.7-9.8,3.7
		c-8.2,0-13.5-5.1-13.5-12c0-6.9,5.4-11.9,12.6-11.9c6.8,0,12.3,4.3,12.3,12C169.1,35.5,169,36.3,169,36.9z M152.2,32.7h9.4
		c-0.4-2.4-2.2-4-4.7-4C154.4,28.7,152.6,30.2,152.2,32.7z"/>
	<path class="st0" d="M196.4,14.8v31.6h-7.7v-2.3c-1.5,1.8-3.8,2.7-6.7,2.7c-6.3,0-11.3-4.6-11.3-12c0-7.3,5-11.9,11.3-11.9
		c2.7,0,4.8,0.8,6.4,2.4V14.8H196.4z M188.5,34.8c0-3.5-2.1-5.5-4.8-5.5c-2.8,0-4.8,2-4.8,5.5c0,3.5,2.1,5.5,4.8,5.5
		C186.4,40.4,188.5,38.4,188.5,34.8z"/>
	<path class="st0" d="M199.3,34.8c0-6.9,5.5-11.9,13-11.9c7.6,0,13,4.9,13,11.9c0,7-5.4,12-13,12C204.7,46.8,199.3,41.8,199.3,34.8z
		 M217.1,34.8c0-3.5-2.1-5.5-4.8-5.5c-2.7,0-4.8,2-4.8,5.5c0,3.5,2.1,5.5,4.8,5.5C215,40.4,217.1,38.4,217.1,34.8z"/>
</g>
</svg>
