<?xml version="1.0" standalone="no"?>
<!DOCTYPE svg PUBLIC "-//W3C//DTD SVG 20010904//EN"
 "http://www.w3.org/TR/2001/REC-SVG-20010904/DTD/svg10.dtd">
<svg version="1.0" xmlns="http://www.w3.org/2000/svg"
 width="700.000000pt" height="700.000000pt" viewBox="0 0 700.000000 700.000000"
 preserveAspectRatio="xMidYMid meet">
<metadata>
Created by potrace 1.11, written by Peter Selinger 2001-2013
</metadata>
<g transform="translate(0.000000,700.000000) scale(0.100000,-0.100000)"
fill="#000000" stroke="none">
<path d="M3235 6994 c-1573 -122 -2874 -1284 -3174 -2834 -48 -250 -55 -331
-55 -660 0 -329 7 -410 55 -660 273 -1409 1370 -2506 2779 -2779 250 -48 331
-55 660 -55 329 0 410 7 660 55 1409 273 2506 1370 2779 2779 48 250 55 331
55 660 0 329 -7 410 -55 660 -271 1400 -1351 2489 -2754 2775 -212 43 -347 56
-625 59 -151 2 -297 2 -325 0z m840 -1428 c106 -17 246 -48 330 -74 l60 -18 3
-567 2 -567 -52 21 c-183 73 -333 109 -459 109 -346 0 -644 -173 -794 -461
-80 -155 -113 -341 -95 -541 36 -407 256 -671 637 -765 46 -11 113 -17 208
-17 127 -1 144 1 187 22 53 26 78 59 85 111 5 46 -13 80 -57 105 -30 18 -56
21 -202 24 l-168 4 0 429 0 429 539 0 539 0 30 -37 c60 -77 145 -217 193 -317
168 -358 172 -761 10 -1101 -63 -132 -124 -224 -218 -326 -216 -235 -446 -366
-753 -430 -139 -30 -418 -36 -575 -15 -337 47 -616 172 -875 392 -410 347
-650 789 -722 1324 -16 124 -16 479 1 600 62 454 239 819 545 1126 370 370
806 550 1336 553 104 0 211 -5 265 -13z"/>
</g>
</svg>
